<svg
          width="20"
          height="20"
          viewBox="0 0 512 512"
          xmlns="http://www.w3.org/2000/svg"
          fill="#294e75"
        >
          <path d="M320 277c-12 0-21 10-21 22v85c0 12-10 21-22 21h-64V85c0-18-11-34-29-40l-6-2h99c12 0 22 9 22 21v64a21 21 0 1042 0V64c0-35-28-64-64-64H43C19 0 0 19 0 43v384c0 18 12 34 29 40l128 43 14 2c23 0 42-19 42-43v-21h64c36 0 64-29 64-64v-85c0-12-9-22-21-22zm0 0" />
          <path d="M506 198l-86-85a21 21 0 00-36 15v64h-85a21 21 0 000 43h85v64a21 21 0 0036 15l86-86c8-8 8-21 0-30zm0 0" />
        </svg>